<svg xmlns="http://www.w3.org/2000/svg" viewBox="0 0 1024 1024" version="1.1">
  <defs>
    <!-- Horse Gradient: Warm Brown -->
    <linearGradient id="horseGradient" x1="0%" y1="0%" x2="100%" y2="100%">
      <stop offset="0%" style="stop-color:#D2691E;stop-opacity:1" /> <!-- Chocolate -->
      <stop offset="100%" style="stop-color:#8B4513;stop-opacity:1" /> <!-- SaddleBrown -->
    </linearGradient>
    
    <!-- Glow Filter for Cyberpunk effect -->
    <filter id="glow">
      <feGaussianBlur stdDeviation="2.5" result="coloredBlur"/>
      <feMerge>
        <feMergeNode in="coloredBlur"/>
        <feMergeNode in="SourceGraphic"/>
      </feMerge>
    </filter>
  </defs>

  <!-- The Horse -->
  <path d="M151.04 432.896l-6.656-1.536c-8.704-1.28-15.36-8.96-15.36-17.92 0-9.728 8.192-17.664 17.92-17.664 9.984 0 46.336 1.792 54.016-5.376-5.632-1.536-12.8-3.84-21.76-5.888-8.96-1.024-15.616-8.448-15.616-17.92 0-9.728 7.936-17.408 17.664-17.408 21.504 0 59.648 4.096 76.032-10.752-7.168-2.816-17.152-5.888-30.208-8.704-8.448-0.768-15.104-8.704-15.104-17.664 0-9.728 7.68-17.664 17.664-17.664 35.84 0 68.864-3.328 92.16-6.4 4.096-2.816-31.488-20.224-32.768-20.48-8.192-3.072-13.056-11.776-11.008-20.224 2.048-9.728 11.264-15.616 20.992-13.568 31.488 6.656 60.672 9.984 81.92 12.032-5.888-2.304-12.288-5.12-19.2-7.936-7.68-3.584-12.288-11.776-10.752-20.224 2.048-9.728 11.52-15.616 21.248-13.568 38.4 8.704 97.792 10.752 137.728 11.264 23.808-2.816 49.92-4.864 77.824-4.352l110.08-56.064c14.848-7.424 32.512-1.792 39.936 13.056 3.84 7.68 4.096 16.64 0.768 24.576L709.12 267.264c6.144 6.4 12.544 12.8 18.432 20.224 10.496 13.312 20.992 28.416 30.72 45.312l1.024 1.536c23.808 41.728 46.592 85.248 66.56 122.88 22.016 41.472 40.192 76.288 49.408 89.088 21.248 30.208 22.016 68.096 9.984 100.096-6.4 16.128-15.616 31.232-26.88 43.008-12.288 12.544-27.136 22.272-43.776 27.392-26.368 7.936-56.32 4.096-84.48-18.176-11.008-8.448-18.176-15.104-25.344-21.504-15.872-14.592-31.232-28.928-61.44-44.288l-17.92-9.216c-30.208-15.104-57.6-29.184-79.36-54.016-21.76 24.832-51.2 64.512-55.04 100.608-2.304 21.76-1.792 44.032-1.28 64.512 0.768 48.896 1.792 91.904-27.904 125.44-10.752 12.032-29.696 13.312-41.472 1.792-12.288-10.496-13.568-28.928-2.816-41.472 14.08-15.616 13.568-48.128 12.8-84.992-0.512-22.272-0.768-46.336 1.792-71.168 7.68-75.008 85.248-151.04 96.768-162.048 2.048-2.304 4.864-4.096 7.936-5.888 14.592-6.912 32.512-1.024 39.936 13.568 15.104 30.208 43.264 44.288 75.264 60.928l18.944 9.216c36.608 19.456 55.04 36.096 73.472 52.48 7.68 6.656 15.36 13.568 22.528 19.456 11.008 8.704 21.76 10.24 30.72 7.68 6.4-1.792 12.8-6.144 18.176-11.776 6.144-5.888 11.008-14.08 14.336-22.272 5.888-15.104 5.888-32.512-3.072-45.056-11.264-16.384-30.464-52.48-53.248-95.488-20.224-38.912-43.776-83.968-65.536-121.088l-0.512-1.792c-8.448-13.824-17.152-26.624-26.112-37.632-7.936-9.728-16.128-18.432-24.32-25.344-11.008-8.192-15.616-22.016-10.496-35.328L655.36 243.2c-16.128 7.68-41.728 27.392-61.44 26.88-171.52-4.352-260.864 78.336-336.896 149.248-28.672 26.624-55.808 51.456-85.504 71.424-13.824 9.216-32.256 5.376-41.216-8.192-8.704-13.568-5.376-32.256 8.448-41.216 4.352-2.048 8.448-5.12 12.288-8.448z m501.76-6.912c-9.728 0-17.664-7.936-17.664-18.176 0-9.216 7.936-17.408 17.664-17.408h25.6c9.728 0 17.664 8.192 17.664 17.408 0 9.984-7.936 18.176-17.664 18.176h-25.6z" 
    fill="url(#horseGradient)" 
    filter="url(#glow)"
  />
</svg>